<?xml version="1.0" standalone="no"?>
<!DOCTYPE svg PUBLIC "-//W3C//DTD SVG 20010904//EN"
 "http://www.w3.org/TR/2001/REC-SVG-20010904/DTD/svg10.dtd">
<svg version="1.0" xmlns="http://www.w3.org/2000/svg"
 width="300.000000pt" height="300.000000pt" viewBox="0 0 300.000000 300.000000"
 preserveAspectRatio="xMidYMid meet">
<metadata>
Created by potrace 1.11, written by Peter Selinger 2001-2013
</metadata>
<g transform="translate(0.000000,300.000000) scale(0.100000,-0.100000)"
fill="#000000" stroke="none">
<path d="M0 1500 l0 -1500 1500 0 1500 0 0 1500 0 1500 -1500 0 -1500 0 0
-1500z m2500 680 c0 -193 -3 -250 -13 -250 -6 0 -109 14 -227 30 -118 17 -218
30 -222 30 -5 0 -8 41 -8 90 l0 90 -145 0 -145 0 -2 -757 -3 -758 -225 -42
c-124 -23 -231 -42 -237 -43 -10 0 -13 166 -13 800 l0 800 -145 0 -145 0 0
-90 c0 -49 -3 -90 -8 -90 -4 0 -104 -13 -222 -30 -118 -16 -221 -30 -227 -30
-10 0 -13 57 -13 250 l0 250 1000 0 1000 0 0 -250z"/>
</g>
</svg>
